<?xml version="1.0" encoding="iso-8859-1"?>
<!-- Uploaded to: SVG Repo, www.svgrepo.com, Generator: SVG Repo Mixer Tools -->
<!DOCTYPE svg PUBLIC "-//W3C//DTD SVG 1.1//EN" "http://www.w3.org/Graphics/SVG/1.1/DTD/svg11.dtd">
<svg fill="#000000" version="1.1" id="Capa_1" xmlns="http://www.w3.org/2000/svg" xmlns:xlink="http://www.w3.org/1999/xlink" 
	 width="800px" height="800px" viewBox="0 0 915.2 915.2" xml:space="preserve"
	>
<g>
	<g>
		<circle cx="198.5" cy="699.2" r="92.5"/>
		<circle cx="714.601" cy="699.2" r="92.5"/>
		<rect x="280.9" y="270.101" width="27.8" height="61"/>
		<rect x="353.7" y="376.101" width="27.5" height="61"/>
		<path d="M915.2,648.401V475c0-12.6-4.7-24.7-13.3-33.9l-105.3-114c-9.4-10.2-22.7-16-36.601-16.1l-89.1-0.3V173.5
			c0-27.6-22.4-50-50-50H50c-27.6,0-50,22.4-50,50v474.9c0,27.6,22.4,50,50,50h20.1c0.4-70.6,57.8-127.701,128.4-127.701
			c70.601,0,128,57.102,128.4,127.701h259.2C586.5,627.801,643.9,570.7,714.5,570.7c70.601,0,128,57.102,128.4,127.701H865
			C892.8,698.401,915.2,676,915.2,648.401z M426.3,459.6c0,12.4-10.1,22.5-22.5,22.5h-50v31.301c0,12.4-10.1,22.5-22.5,22.5
			c-12.399,0-22.6-10.1-22.6-22.5V482.1H267c-12.4,0-22.5-10.1-22.5-22.5c0-12.4,10.1-22.5,22.5-22.5h41.7v-61h-50.3
			c-12.4,0-22.5-10.1-22.5-22.5v-106c0-12.4,10.1-22.5,22.5-22.5h50.3v-31.3c0-12.4,10.1-22.5,22.5-22.5s22.5,10.1,22.5,22.5v31.3
			h37.7c12.399,0,22.5,10.1,22.5,22.5s-10.101,22.5-22.5,22.5h-37.7v61h50c12.4,0,22.5,10.1,22.5,22.5v106H426.3z M799.4,453.601
			h-98.7c-13.8,0-25-11.2-25-25v-54c0-13.8,11.2-25,25-25h49.9c7.1,0,13.8,3,18.5,8.2l48.8,54
			C832.5,427.9,821.101,453.601,799.4,453.601z"/>
	</g>
</g>
</svg>