<?xml version="1.0" encoding="iso-8859-1"?>
<!-- Uploaded to: SVG Repo, www.svgrepo.com, Generator: SVG Repo Mixer Tools -->
<svg fill="#000000" height="800px" width="800px" version="1.1" id="Layer_1" xmlns="http://www.w3.org/2000/svg" xmlns:xlink="http://www.w3.org/1999/xlink" 
	 viewBox="0 0 512 512" xml:space="preserve">
<g>
	<g>
		<path d="M222.924,0c-9.864,0-17.86,7.997-17.86,17.86v55.651c0,9.864,7.997,17.86,17.86,17.86c9.864,0,17.86-7.997,17.86-17.86
			V17.86C240.785,7.997,232.788,0,222.924,0z"/>
	</g>
</g>
<g>
	<g>
		<path d="M289.075,0c-9.864,0-17.86,7.997-17.86,17.86v55.651c0,9.864,7.996,17.86,17.86,17.86c9.864,0,17.86-7.997,17.86-17.86
			V17.86C306.935,7.997,298.939,0,289.075,0z"/>
	</g>
</g>
<g>
	<g>
		<path d="M413.041,435.593c-4.167-7.217-78.629-136.184-82.277-142.501V160.282h8.229c9.864,0,17.86-7.997,17.86-17.86
			c0-9.864-7.997-17.86-17.86-17.86c-6.187,0-160.529,0-165.986,0c-9.864,0-17.86,7.997-17.86,17.86
			c0,9.864,7.997,17.86,17.86,17.86h8.229V293.09c-3.871,6.705-78.243,135.516-82.278,142.504
			C79.348,469.566,103.839,512,143.074,512h225.852C408.139,512,432.661,469.584,413.041,435.593z M216.957,297.877V160.282h78.086
			v137.595c0,6.008,1.963,8.187,9.763,21.695h-97.611C214.983,306.081,216.957,303.893,216.957,297.877z M213.26,431.18
			c-8.549,0-15.48-6.931-15.48-15.48c0-8.549,6.931-15.48,15.48-15.48c8.55,0,15.48,6.931,15.48,15.48
			C228.74,424.249,221.809,431.18,213.26,431.18z M284.179,445.74c-16.591,0-30.041-13.45-30.041-30.041s13.45-30.041,30.041-30.041
			s30.041,13.45,30.041,30.041S300.77,445.74,284.179,445.74z"/>
	</g>
</g>
</svg>