<?xml version="1.0" encoding="iso-8859-1"?>
<!-- Uploaded to: SVG Repo, www.svgrepo.com, Generator: SVG Repo Mixer Tools -->
<svg fill="#000000" height="800px" width="800px" version="1.1" id="Layer_1" xmlns="http://www.w3.org/2000/svg" xmlns:xlink="http://www.w3.org/1999/xlink" 
	 viewBox="0 0 512 512" xml:space="preserve">
<g>
	<g>
		<path d="M449.259,0h-19.864v20.416c0,7.042-5.709,12.75-12.75,12.75s-12.75-5.708-12.75-12.75V0h-38.759v20.416
			c0,7.042-5.709,12.75-12.75,12.75s-12.75-5.708-12.75-12.75V0h-38.759v20.416c0,7.042-5.709,12.75-12.75,12.75
			c-7.04,0-12.75-5.708-12.75-12.75V0h-38.759v20.416c0,7.042-5.708,12.75-12.75,12.75c-7.042,0-12.75-5.708-12.75-12.75V0h-38.759
			v20.416c0,7.042-5.708,12.75-12.75,12.75c-7.042,0-12.75-5.708-12.75-12.75V0h-38.759v20.416c0,7.042-5.708,12.75-12.75,12.75
			s-12.75-5.708-12.75-12.75V0H62.741c-6.622,0-12.01,5.388-12.01,12.01v487.98c0,6.622,5.388,12.01,12.01,12.01h386.518
			c6.622,0,12.01-5.388,12.01-12.01V12.01C461.269,5.388,455.881,0,449.259,0z M156.263,440.754h-17.709
			c-20.684,0-37.509-16.827-37.509-37.509c0-20.684,16.827-37.509,37.509-37.509h17.709c20.684,0,37.509,16.827,37.509,37.509
			S176.947,440.754,156.263,440.754z M156.263,321.059h-17.709c-20.684,0-37.509-16.827-37.509-37.509
			c0-20.684,16.827-37.509,37.509-37.509h17.709c20.684,0,37.509,16.827,37.509,37.509
			C193.773,304.232,176.947,321.059,156.263,321.059z M156.263,201.364h-17.709c-20.684,0-37.509-16.827-37.509-37.509
			c0-20.682,16.827-37.509,37.509-37.509h17.709c20.684,0,37.509,16.827,37.509,37.509
			C193.773,184.537,176.947,201.364,156.263,201.364z M398.206,440.754H241.381c-7.042,0-12.75-5.708-12.75-12.75
			s5.708-12.75,12.75-12.75h156.824c7.04,0,12.75,5.708,12.75,12.75S405.247,440.754,398.206,440.754z M398.206,391.234H241.381
			c-7.042,0-12.75-5.708-12.75-12.75s5.708-12.75,12.75-12.75h156.824c7.04,0,12.75,5.708,12.75,12.75
			S405.247,391.234,398.206,391.234z M398.206,321.059H241.381c-7.042,0-12.75-5.708-12.75-12.75c0-7.042,5.708-12.75,12.75-12.75
			h156.824c7.04,0,12.75,5.708,12.75,12.75C410.955,315.351,405.247,321.059,398.206,321.059z M398.206,271.539H241.381
			c-7.042,0-12.75-5.708-12.75-12.75s5.708-12.75,12.75-12.75h156.824c7.04,0,12.75,5.708,12.75,12.75
			S405.247,271.539,398.206,271.539z M398.206,201.364H241.381c-7.042,0-12.75-5.708-12.75-12.75s5.708-12.75,12.75-12.75h156.824
			c7.04,0,12.75,5.708,12.75,12.75S405.247,201.364,398.206,201.364z M398.206,151.843H241.381c-7.042,0-12.75-5.708-12.75-12.75
			s5.708-12.75,12.75-12.75h156.824c7.04,0,12.75,5.708,12.75,12.75S405.247,151.843,398.206,151.843z"/>
	</g>
</g>
</svg>