<?xml version="1.0" encoding="utf-8"?>
<!-- Uploaded to: SVG Repo, www.svgrepo.com, Generator: SVG Repo Mixer Tools -->
<svg fill="#000000" height="800px" width="800px" version="1.2" baseProfile="tiny" id="Layer_1" xmlns="http://www.w3.org/2000/svg" xmlns:xlink="http://www.w3.org/1999/xlink"
	  viewBox="0 0 256 256" xml:space="preserve">
<g>
	<g>
		<path d="M12.051,28.452C3.143,39.604-16.659,92.744,68.229,179.759c89.422,91.663,147.124,72.055,157.057,61.712l-59.802-59.802
			c-8.345,8.345-19.11,0.937-39.765-15.904c-13.667-11.143-29.391-26.132-43.025-43.025c-9.566-11.854-18.027-24.301-9.287-33.041
			L12.051,28.452z"/>
	</g>
	<g>
		<path d="M246.906,220.062c3.865-3.865,3.489-9.787-0.041-13.317l0-0.055c0,0-46.637-46.583-46.666-46.611
			c-3.697-3.697-9.609-3.616-13.25,0.026l-16.941,16.941l59.957,59.957c0,0,16.925-16.873,16.925-16.901L246.906,220.062z"/>
	</g>
	<g>
		<path d="M94.975,68.131c3.865-3.865,3.489-9.787-0.041-13.317l0-0.055c0,0-47.982-47.927-48.01-47.955
			c-3.697-3.697-9.609-3.616-13.25,0.026L16.732,23.771l61.302,61.302c0,0,16.925-16.873,16.925-16.901L94.975,68.131z"/>
	</g>
</g>
</svg>