<?xml version="1.0" encoding="iso-8859-1"?>
<!-- Uploaded to: SVG Repo, www.svgrepo.com, Generator: SVG Repo Mixer Tools -->
<!DOCTYPE svg PUBLIC "-//W3C//DTD SVG 1.1//EN" "http://www.w3.org/Graphics/SVG/1.1/DTD/svg11.dtd">
<svg fill="#000000" height="800px" width="800px" version="1.1" id="Capa_1" xmlns="http://www.w3.org/2000/svg" xmlns:xlink="http://www.w3.org/1999/xlink" 
	 viewBox="0 0 347 347" xml:space="preserve">
<path d="M322,0H25C11.215,0,0,11.215,0,25v297c0,13.785,11.215,25,25,25h297c13.785,0,25-11.215,25-25V25
	C347,11.215,335.785,0,322,0z M290,233.264C290,252.969,274.021,269,254.379,269H141v30.098c0,6.132-3.757,10.415-9.137,10.415
	c-2.062,0-4.149-0.649-6.205-1.93l-71.964-44.813c-3.496-2.178-5.501-5.455-5.501-8.993c0-3.543,2.01-6.828,5.514-9.012
	l71.951-44.813c2.055-1.28,4.143-1.93,6.205-1.93c5.38,0,9.137,4.282,9.137,10.415V239h113.379c3.257,0,5.621-2.412,5.621-5.736V170
	c0-8.284,6.716-15,15-15s15,6.716,15,15V233.264z M294.021,101.235l-71.896,44.811c-2.056,1.281-4.128,1.932-6.158,1.932
	c-4.318,0-8.967-3.26-8.967-10.416V107H93.186c-3.411,0-6.186,2.573-6.186,5.736V176c0,8.284-6.716,15-15,15s-15-6.716-15-15
	v-63.264C57,93.031,73.232,77,93.186,77H207V46.902c0-7.156,4.648-10.415,8.967-10.415c2.03,0,4.102,0.649,6.157,1.93l71.858,44.814
	c3.511,2.187,5.525,5.477,5.525,9.024C299.508,95.789,297.508,99.062,294.021,101.235z"/>
</svg>