<?xml version="1.0" encoding="iso-8859-1"?>
<!-- Uploaded to: SVG Repo, www.svgrepo.com, Generator: SVG Repo Mixer Tools -->
<svg version="1.1" id="Layer_1" xmlns="http://www.w3.org/2000/svg" xmlns:xlink="http://www.w3.org/1999/xlink" 
	 viewBox="0 0 512 512" xml:space="preserve">
<path d="M0,346.68v-310c0-5.504,4.704-10,10.448-10h491.104c5.744,0,10.448,4.496,10.448,10v310H0z"/>
<g style="opacity:0.12;">
	<rect x="21.328" y="50.616" style="fill:#FFFFFF;" width="16" height="16"/>
	<rect x="56.24" y="50.616" style="fill:#FFFFFF;" width="16" height="16"/>
	<rect x="91.072" y="50.616" style="fill:#FFFFFF;" width="16" height="16"/>
	<rect x="125.944" y="50.616" style="fill:#FFFFFF;" width="16" height="16"/>
	<rect x="160.8" y="50.616" style="fill:#FFFFFF;" width="16" height="16"/>
	<rect x="195.688" y="50.616" style="fill:#FFFFFF;" width="16" height="16"/>
	<rect x="230.56" y="50.616" style="fill:#FFFFFF;" width="16" height="16"/>
	<rect x="265.44" y="50.616" style="fill:#FFFFFF;" width="16" height="16"/>
	<rect x="300.312" y="50.616" style="fill:#FFFFFF;" width="16" height="16"/>
	<rect x="335.184" y="50.616" style="fill:#FFFFFF;" width="16" height="16"/>
	<rect x="370.08" y="50.616" style="fill:#FFFFFF;" width="16" height="16"/>
	<rect x="404.928" y="50.616" style="fill:#FFFFFF;" width="16" height="16"/>
	<rect x="439.8" y="50.616" style="fill:#FFFFFF;" width="16" height="16"/>
	<rect x="474.64" y="50.616" style="fill:#FFFFFF;" width="16" height="16"/>
	<rect x="21.328" y="82.616" style="fill:#FFFFFF;" width="16" height="16"/>
	<rect x="56.24" y="82.616" style="fill:#FFFFFF;" width="16" height="16"/>
	<rect x="91.072" y="82.616" style="fill:#FFFFFF;" width="16" height="16"/>
	<rect x="125.944" y="82.616" style="fill:#FFFFFF;" width="16" height="16"/>
	<rect x="160.8" y="82.616" style="fill:#FFFFFF;" width="16" height="16"/>
	<rect x="195.688" y="82.616" style="fill:#FFFFFF;" width="16" height="16"/>
	<rect x="230.56" y="82.616" style="fill:#FFFFFF;" width="16" height="16"/>
	<rect x="265.44" y="82.616" style="fill:#FFFFFF;" width="16" height="16"/>
	<rect x="300.312" y="82.616" style="fill:#FFFFFF;" width="16" height="16"/>
	<rect x="335.184" y="82.616" style="fill:#FFFFFF;" width="16" height="16"/>
	<rect x="370.08" y="82.616" style="fill:#FFFFFF;" width="16" height="16"/>
	<rect x="404.928" y="82.616" style="fill:#FFFFFF;" width="16" height="16"/>
	<rect x="439.8" y="82.616" style="fill:#FFFFFF;" width="16" height="16"/>
	<rect x="474.64" y="82.616" style="fill:#FFFFFF;" width="16" height="16"/>
	<rect x="21.328" y="114.616" style="fill:#FFFFFF;" width="16" height="16"/>
	<rect x="56.24" y="114.616" style="fill:#FFFFFF;" width="16" height="16"/>
	<rect x="91.072" y="114.616" style="fill:#FFFFFF;" width="16" height="16"/>
	<rect x="125.944" y="114.616" style="fill:#FFFFFF;" width="16" height="16"/>
	<rect x="160.8" y="114.616" style="fill:#FFFFFF;" width="16" height="16"/>
	<rect x="195.688" y="114.616" style="fill:#FFFFFF;" width="16" height="16"/>
	<rect x="230.56" y="114.616" style="fill:#FFFFFF;" width="16" height="16"/>
	<rect x="265.44" y="114.616" style="fill:#FFFFFF;" width="16" height="16"/>
	<rect x="300.312" y="114.616" style="fill:#FFFFFF;" width="16" height="16"/>
	<rect x="335.184" y="114.616" style="fill:#FFFFFF;" width="16" height="16"/>
	<rect x="370.08" y="114.616" style="fill:#FFFFFF;" width="16" height="16"/>
	<rect x="404.928" y="114.616" style="fill:#FFFFFF;" width="16" height="16"/>
	<rect x="439.8" y="114.616" style="fill:#FFFFFF;" width="16" height="16"/>
	<rect x="474.64" y="114.616" style="fill:#FFFFFF;" width="16" height="16"/>
	<rect x="21.328" y="146.616" style="fill:#FFFFFF;" width="16" height="16"/>
	<rect x="56.24" y="146.616" style="fill:#FFFFFF;" width="16" height="16"/>
	<rect x="91.072" y="146.616" style="fill:#FFFFFF;" width="16" height="16"/>
	<rect x="125.944" y="146.616" style="fill:#FFFFFF;" width="16" height="16"/>
	<rect x="160.8" y="146.616" style="fill:#FFFFFF;" width="16" height="16"/>
	<rect x="195.688" y="146.616" style="fill:#FFFFFF;" width="16" height="16"/>
	<rect x="230.56" y="146.616" style="fill:#FFFFFF;" width="16" height="16"/>
	<rect x="265.44" y="146.616" style="fill:#FFFFFF;" width="16" height="16"/>
	<rect x="300.312" y="146.616" style="fill:#FFFFFF;" width="16" height="16"/>
	<rect x="335.184" y="146.616" style="fill:#FFFFFF;" width="16" height="16"/>
	<rect x="370.08" y="146.616" style="fill:#FFFFFF;" width="16" height="16"/>
	<rect x="404.928" y="146.616" style="fill:#FFFFFF;" width="16" height="16"/>
	<rect x="439.8" y="146.616" style="fill:#FFFFFF;" width="16" height="16"/>
	<rect x="474.64" y="146.616" style="fill:#FFFFFF;" width="16" height="16"/>
	<rect x="21.328" y="178.616" style="fill:#FFFFFF;" width="16" height="16"/>
	<rect x="56.24" y="178.616" style="fill:#FFFFFF;" width="16" height="16"/>
	<rect x="91.072" y="178.616" style="fill:#FFFFFF;" width="16" height="16"/>
	<rect x="125.944" y="178.616" style="fill:#FFFFFF;" width="16" height="16"/>
	<rect x="160.8" y="178.616" style="fill:#FFFFFF;" width="16" height="16"/>
	<rect x="195.688" y="178.616" style="fill:#FFFFFF;" width="16" height="16"/>
	<rect x="230.56" y="178.616" style="fill:#FFFFFF;" width="16" height="16"/>
	<rect x="265.44" y="178.616" style="fill:#FFFFFF;" width="16" height="16"/>
	<rect x="300.312" y="178.616" style="fill:#FFFFFF;" width="16" height="16"/>
	<rect x="335.184" y="178.616" style="fill:#FFFFFF;" width="16" height="16"/>
	<rect x="370.08" y="178.616" style="fill:#FFFFFF;" width="16" height="16"/>
	<rect x="404.928" y="178.616" style="fill:#FFFFFF;" width="16" height="16"/>
	<rect x="439.8" y="178.616" style="fill:#FFFFFF;" width="16" height="16"/>
	<rect x="474.64" y="178.616" style="fill:#FFFFFF;" width="16" height="16"/>
	<rect x="21.328" y="210.616" style="fill:#FFFFFF;" width="16" height="16"/>
	<rect x="56.24" y="210.616" style="fill:#FFFFFF;" width="16" height="16"/>
	<rect x="91.072" y="210.616" style="fill:#FFFFFF;" width="16" height="16"/>
	<rect x="125.944" y="210.616" style="fill:#FFFFFF;" width="16" height="16"/>
	<rect x="160.8" y="210.616" style="fill:#FFFFFF;" width="16" height="16"/>
	<rect x="195.688" y="210.616" style="fill:#FFFFFF;" width="16" height="16"/>
	<rect x="230.56" y="210.616" style="fill:#FFFFFF;" width="16" height="16"/>
	<rect x="265.44" y="210.616" style="fill:#FFFFFF;" width="16" height="16"/>
	<rect x="300.312" y="210.616" style="fill:#FFFFFF;" width="16" height="16"/>
	<rect x="335.184" y="210.616" style="fill:#FFFFFF;" width="16" height="16"/>
	<rect x="370.08" y="210.616" style="fill:#FFFFFF;" width="16" height="16"/>
	<rect x="404.928" y="210.616" style="fill:#FFFFFF;" width="16" height="16"/>
	<rect x="439.8" y="210.616" style="fill:#FFFFFF;" width="16" height="16"/>
	<rect x="474.64" y="210.616" style="fill:#FFFFFF;" width="16" height="16"/>
	<rect x="21.328" y="242.576" style="fill:#FFFFFF;" width="16" height="16"/>
	<rect x="56.24" y="242.576" style="fill:#FFFFFF;" width="16" height="16"/>
	<rect x="91.072" y="242.576" style="fill:#FFFFFF;" width="16" height="16"/>
	<rect x="125.944" y="242.576" style="fill:#FFFFFF;" width="16" height="16"/>
	<rect x="160.8" y="242.576" style="fill:#FFFFFF;" width="16" height="16"/>
	<rect x="195.688" y="242.576" style="fill:#FFFFFF;" width="16" height="16"/>
	<rect x="230.56" y="242.576" style="fill:#FFFFFF;" width="16" height="16"/>
	<rect x="265.44" y="242.576" style="fill:#FFFFFF;" width="16" height="16"/>
	<rect x="300.312" y="242.576" style="fill:#FFFFFF;" width="16" height="16"/>
	<rect x="335.184" y="242.576" style="fill:#FFFFFF;" width="16" height="16"/>
	<rect x="370.08" y="242.576" style="fill:#FFFFFF;" width="16" height="16"/>
	<rect x="404.928" y="242.576" style="fill:#FFFFFF;" width="16" height="16"/>
	<rect x="439.8" y="242.576" style="fill:#FFFFFF;" width="16" height="16"/>
	<rect x="474.64" y="242.576" style="fill:#FFFFFF;" width="16" height="16"/>
	<rect x="21.328" y="274.656" style="fill:#FFFFFF;" width="16" height="16"/>
	<rect x="56.24" y="274.656" style="fill:#FFFFFF;" width="16" height="16"/>
	<rect x="91.072" y="274.656" style="fill:#FFFFFF;" width="16" height="16"/>
	<rect x="125.944" y="274.656" style="fill:#FFFFFF;" width="16" height="16"/>
	<rect x="160.8" y="274.656" style="fill:#FFFFFF;" width="16" height="16"/>
	<rect x="195.688" y="274.656" style="fill:#FFFFFF;" width="16" height="16"/>
	<rect x="230.56" y="274.656" style="fill:#FFFFFF;" width="16" height="16"/>
	<rect x="265.44" y="274.656" style="fill:#FFFFFF;" width="16" height="16"/>
	<rect x="300.312" y="274.656" style="fill:#FFFFFF;" width="16" height="16"/>
	<rect x="335.184" y="274.656" style="fill:#FFFFFF;" width="16" height="16"/>
	<rect x="370.08" y="274.656" style="fill:#FFFFFF;" width="16" height="16"/>
	<rect x="404.928" y="274.656" style="fill:#FFFFFF;" width="16" height="16"/>
	<rect x="439.8" y="274.656" style="fill:#FFFFFF;" width="16" height="16"/>
	<rect x="474.64" y="274.656" style="fill:#FFFFFF;" width="16" height="16"/>
	<rect x="21.328" y="306.656" style="fill:#FFFFFF;" width="16" height="16"/>
	<rect x="56.24" y="306.656" style="fill:#FFFFFF;" width="16" height="16"/>
	<rect x="91.072" y="306.656" style="fill:#FFFFFF;" width="16" height="16"/>
	<rect x="125.944" y="306.656" style="fill:#FFFFFF;" width="16" height="16"/>
	<rect x="160.8" y="306.656" style="fill:#FFFFFF;" width="16" height="16"/>
	<rect x="195.688" y="306.656" style="fill:#FFFFFF;" width="16" height="16"/>
	<rect x="230.56" y="306.656" style="fill:#FFFFFF;" width="16" height="16"/>
	<rect x="265.44" y="306.656" style="fill:#FFFFFF;" width="16" height="16"/>
	<rect x="300.312" y="306.656" style="fill:#FFFFFF;" width="16" height="16"/>
	<rect x="335.184" y="306.656" style="fill:#FFFFFF;" width="16" height="16"/>
	<rect x="370.08" y="306.656" style="fill:#FFFFFF;" width="16" height="16"/>
	<rect x="404.928" y="306.656" style="fill:#FFFFFF;" width="16" height="16"/>
	<rect x="439.8" y="306.656" style="fill:#FFFFFF;" width="16" height="16"/>
	<rect x="474.64" y="306.656" style="fill:#FFFFFF;" width="16" height="16"/>
</g>
<path style="fill:#D8D8D8;" d="M512,346.68v42.664c0,5.872-4.704,10.672-10.448,10.672H10.448c-5.744,0-10.448-4.8-10.448-10.664
	v-42.664L512,346.68L512,346.68z"/>
<polygon style="fill:#BCBCBC;" points="181.336,474.68 330.664,474.68 320,400.016 192,400.016 "/>
<polygon style="fill:#AAAAAA;" points="320,400.016 192,400.016 185.352,446.552 322.488,417.416 "/>
<rect x="144" y="474.656" style="fill:#D8D8D8;" width="224" height="10.664"/>
<polygon style="fill:#939393;" points="192,400.016 320,400.016 320.72,405.056 188.68,423.28 "/>
<polygon style="fill:#CCCCCC;" points="299.136,249.256 199.944,149.2 102.744,246.408 97.088,240.752 199.968,137.864 
	299.136,237.896 395.472,140.72 401.16,146.352 "/>
<circle style="fill:#FFFFFF;" cx="99.912" cy="243.576" r="34.912"/>
<g>
	<circle style="fill:#E21B1B;" cx="99.912" cy="243.576" r="15.368"/>
	<circle style="fill:#E21B1B;" cx="300.752" cy="243.576" r="34.912"/>
</g>
<circle style="fill:#FFFFFF;" cx="300.752" cy="243.576" r="15.368"/>
<circle style="fill:#E21B1B;" cx="200" cy="143.536" r="48.688"/>
<g>
	<circle style="fill:#FFFFFF;" cx="200" cy="143.536" r="21.424"/>
	<circle style="fill:#FFFFFF;" cx="398.312" cy="143.536" r="48.688"/>
</g>
<circle style="fill:#E21B1B;" cx="398.312" cy="143.536" r="21.424"/>
</svg>