<?xml version="1.0" encoding="iso-8859-1"?>
<!-- Uploaded to: SVG Repo, www.svgrepo.com, Generator: SVG Repo Mixer Tools -->
<svg fill="#000000" height="800px" width="800px" version="1.1" id="Layer_1" xmlns="http://www.w3.org/2000/svg" xmlns:xlink="http://www.w3.org/1999/xlink" 
	 viewBox="0 0 511.786 511.786" xml:space="preserve">
<g>
	<g>
		<g>
			<path d="M400.853,285.653c-61.167,0-110.933,49.766-110.933,110.933S339.686,507.52,400.853,507.52
				s110.933-49.766,110.933-110.933S462.019,285.653,400.853,285.653z M400.853,464.853c-4.71,0-8.533-3.823-8.533-8.533
				s3.823-8.533,8.533-8.533s8.533,3.823,8.533,8.533S405.563,464.853,400.853,464.853z M409.386,422.186
				c0,4.719-3.814,8.533-8.533,8.533c-4.719,0-8.533-3.814-8.533-8.533V328.32c0-4.719,3.814-8.533,8.533-8.533
				c4.719,0,8.533,3.814,8.533,8.533V422.186z"/>
			<path d="M138.948,129.836c-24.457-8.943-47.915-20.779-69.751-35.729l-7.45-6.118C24.994,129.64,2.022,183.69,0,242.988h119.484
				C120.405,207.148,127.061,167.971,138.948,129.836z"/>
			<path d="M268.383,5.017c-4.173-0.358-8.371-0.606-12.595-0.751v127.471c26.795-0.759,53.103-4.907,78.353-12.578
				C318.892,75.929,296.679,35.302,268.383,5.017z"/>
			<path d="M119.485,260.053H0.002c1.929,56.405,22.75,108.1,56.422,148.847c23.74-13.781,52.292-27.511,81.579-38.673
				C126.688,333.03,120.381,294.954,119.485,260.053z"/>
			<path d="M415.677,80.028l5.734-4.122c-34.278-33.997-78.421-58.01-127.701-67.413c23.808,29.952,42.829,66.577,56.491,105.148
				C373.156,105.201,395.172,94.057,415.677,80.028z"/>
			<path d="M226.13,498.022c4.173,0.358,8.363,0.606,12.587,0.751V362.794c-23.637,1.365-51.473,8.132-79.522,17.852
				C174.469,425.079,197.125,466.978,226.13,498.022z"/>
			<path d="M154.007,364.43c29.781-10.274,59.418-17.357,84.71-18.714V260.05h-102.17
				C137.435,292.938,143.392,329.068,154.007,364.43z"/>
			<path d="M255.788,148.799v94.191h102.17c-0.913-33.894-7.236-71.228-18.466-107.614
				C312.518,143.619,284.409,148.039,255.788,148.799z"/>
			<path d="M68.057,421.918c34.944,36.736,80.998,62.763,132.745,72.636c-24.414-30.72-43.853-68.446-57.583-108.092
				C116.338,396.779,90.132,409.323,68.057,421.918z"/>
			<path d="M375.02,242.986h119.484c-2.014-59.076-24.815-112.939-61.338-154.522l-7.689,5.53
				c-21.922,15.002-45.423,26.871-69.922,35.831C367.442,167.97,374.107,207.146,375.02,242.986z"/>
			<path d="M160.352,119.193c25.207,7.637,51.541,11.785,78.37,12.544V4.266c-4.233,0.145-8.422,0.393-12.595,0.751
				C197.822,35.31,175.601,75.946,160.352,119.193z"/>
			<path d="M144.29,113.687c13.662-38.588,32.691-75.23,56.516-105.199c-49.118,9.37-93.124,33.263-127.352,67.081l5.973,4.907
				C99.652,94.299,121.472,105.315,144.29,113.687z"/>
			<path d="M136.55,242.986h102.17v-94.182c-28.629-0.768-56.747-5.188-83.712-13.423C143.777,171.767,137.463,209.1,136.55,242.986
				z"/>
			<path d="M272.853,396.586c0-70.579,57.421-128,128-128c34.116,0,65.084,13.5,88.047,35.337c3.072-14.43,4.975-29.082,5.487-43.87
				H255.786V498.79c19.584-0.666,38.852-3.746,57.643-8.96C288.52,466.457,272.853,433.356,272.853,396.586z"/>
		</g>
	</g>
</g>
</svg>