<?xml version="1.0" encoding="iso-8859-1"?>
<!-- Uploaded to: SVG Repo, www.svgrepo.com, Generator: SVG Repo Mixer Tools -->
<svg fill="#000000" height="800px" width="800px" version="1.1" id="Layer_1" xmlns="http://www.w3.org/2000/svg" xmlns:xlink="http://www.w3.org/1999/xlink" 
	 viewBox="0 0 509.85 509.85" xml:space="preserve">
<g>
	<g>
		<g>
			<path d="M313.139,163.278c-18.731,4.011-38.229,6.315-58.219,6.315s-39.488-2.304-58.219-6.315
				c-2.795,21.227-4.715,44.651-5.419,70.315h127.275C317.854,207.929,315.934,184.505,313.139,163.278z"/>
			<path d="M254.916,382.924c-17.323,0-34.347,2.325-50.859,6.4c14.251,65.472,36.821,100.267,50.859,100.267
				c14.059,0,36.629-34.795,50.859-100.267C289.263,385.249,272.26,382.924,254.916,382.924z"/>
			<path d="M254.921,126.926c17.643,0,34.731-2.091,51.008-5.696c-14.229-65.92-36.907-100.971-51.008-100.971
				s-36.779,35.051-51.008,100.992C220.19,124.835,237.278,126.926,254.921,126.926z"/>
			<path d="M254.929,340.259c19.776,0,39.211,2.539,58.133,6.955c2.837-21.397,4.779-45.035,5.483-70.955H191.292
				c0.704,25.92,2.645,49.557,5.504,70.955C215.697,342.798,235.132,340.259,254.929,340.259z"/>
			<path d="M354.108,360.505c27.883,11.797,53.781,28.416,76.373,49.749c0.533,0.491,1.024,1.003,1.472,1.536l12.587,14.528
				c36.608-40.469,60.523-92.523,65.301-150.059H361.233C360.444,305.038,358.054,333.518,354.108,360.505z"/>
			<path d="M155.456,151.033c-30.677-12.203-57.387-30.016-77.376-52.416L65.195,83.662C28.629,124.131,4.779,176.121,0,233.593
				h148.608C149.376,205.433,151.659,177.529,155.456,151.033z"/>
			<path d="M346.17,403.709c-9.856,43.328-24.448,79.68-43.52,102.592c41.301-7.829,79.04-25.6,110.784-50.731l-13.013-15.019
				C384.143,425.319,365.796,413.074,346.17,403.709z"/>
			<path d="M361.242,233.595H509.85c-4.779-57.472-28.651-109.461-65.195-149.931l-12.672,14.699
				c-20.096,22.528-46.891,40.427-77.611,52.651C358.17,177.509,360.452,205.413,361.242,233.595z"/>
			<path d="M108.649,441.26c-0.853,0.832-1.771,1.557-2.752,2.197l-13.525,9.088c32.533,26.795,71.808,45.611,114.816,53.76
				c-19.072-22.912-33.664-59.264-43.52-102.571C143.742,413.249,125.118,425.729,108.649,441.26z"/>
			<path d="M148.608,276.266H0c4.608,55.467,26.944,105.877,61.355,145.707l19.307-12.971
				c22.272-20.736,47.744-36.907,75.072-48.469C151.787,333.524,149.397,305.044,148.608,276.266z"/>
			<path d="M163.27,107.929c9.877-44.096,24.597-81.152,43.925-104.384c-41.365,7.851-79.147,25.664-110.933,50.859l13.888,16.085
				C123.932,85.934,142.257,98.478,163.27,107.929z"/>
			<path d="M399.923,70.224l13.653-15.829C381.811,29.2,344.009,11.387,302.643,3.557c19.328,23.211,34.048,60.267,43.925,104.341
				C367.625,98.405,386.014,85.797,399.923,70.224z"/>
		</g>
	</g>
</g>
</svg>